<svg xmlns="http://www.w3.org/2000/svg" xmlns:xlink="http://www.w3.org/1999/xlink" width="500" zoomAndPan="magnify" viewBox="0 0 375 374.999991" height="500" preserveAspectRatio="xMidYMid meet" version="1.0"><defs><g/><clipPath id="d48b424ddb"><path d="M 163 92.585938 L 172 92.585938 L 172 215 L 163 215 Z M 163 92.585938 " clip-rule="nonzero"/></clipPath></defs><path fill="#FF8B28" d="M 198.460938 172.222656 C 198.480469 183.960938 198.527344 195.707031 198.445312 207.457031 C 198.429688 210.632812 199.304688 214.898438 194.445312 214.816406 C 189.675781 214.726562 190.535156 210.503906 190.519531 207.316406 C 190.503906 183.390625 190.515625 159.496094 190.609375 135.589844 C 190.625 132.414062 189.894531 128.195312 194.710938 128.230469 C 199.839844 128.277344 198.324219 132.832031 198.363281 135.742188 C 198.550781 147.898438 198.445312 160.058594 198.460938 172.222656 Z M 198.460938 172.222656 " fill-opacity="1" fill-rule="evenodd"/><path fill="#ffff" d="M 217.0625 183.210938 C 217.074219 175.679688 217.070312 168.140625 217.074219 160.601562 C 217.074219 157.222656 216.675781 153.414062 221.464844 153.585938 C 225.683594 153.734375 224.960938 157.371094 224.976562 160.121094 C 225.039062 176.03125 225.027344 191.945312 224.945312 207.875 C 224.929688 211.050781 225.589844 215.328125 220.671875 214.890625 C 215.949219 214.476562 217.140625 210.207031 217.09375 207.089844 C 216.976562 199.132812 217.054688 191.167969 217.0625 183.210938 Z M 217.0625 183.210938 " fill-opacity="1" fill-rule="evenodd"/><path fill="#ffff" d="M 244.023438 181.679688 C 244.027344 171.660156 244.007812 161.652344 244.039062 151.640625 C 244.042969 149.046875 244.359375 146.453125 247.597656 146.414062 C 250.832031 146.371094 251.183594 148.84375 251.183594 151.523438 C 251.183594 170.71875 251.21875 189.90625 251.171875 209.121094 C 251.160156 211.992188 251.347656 215.382812 247.089844 214.894531 C 243.773438 214.511719 244.066406 211.632812 244.046875 209.234375 C 243.980469 200.046875 244.019531 190.859375 244.023438 181.679688 Z M 244.023438 181.679688 " fill-opacity="1" fill-rule="evenodd"/><path fill="#ffff" d="M 238.046875 192.136719 C 238.046875 197.996094 238.085938 203.855469 238.035156 209.71875 C 238.007812 212.347656 237.542969 214.804688 234.375 214.972656 C 231.289062 215.132812 230.296875 213.089844 230.292969 210.246094 C 230.269531 197.6875 230.277344 185.132812 230.261719 172.582031 C 230.261719 169.613281 231.378906 167.886719 234.421875 168.0625 C 237.675781 168.257812 237.972656 170.738281 237.988281 173.308594 C 238.042969 179.589844 238.007812 185.859375 238.007812 192.136719 C 238.019531 192.136719 238.035156 192.136719 238.046875 192.136719 Z M 238.046875 192.136719 " fill-opacity="1" fill-rule="evenodd"/><path fill="#ffff" d="M 131.828125 192.105469 C 131.828125 197.953125 131.875 203.816406 131.808594 209.65625 C 131.777344 212.265625 131.324219 214.792969 128.15625 214.902344 C 125.203125 215.011719 123.941406 213.140625 123.945312 210.214844 C 123.953125 197.683594 124.015625 185.144531 124.027344 172.621094 C 124.035156 169.640625 125.148438 167.917969 128.175781 168.058594 C 131.464844 168.21875 131.71875 170.789062 131.753906 173.308594 C 131.839844 179.578125 131.785156 185.84375 131.785156 192.109375 L 131.828125 192.109375 Z M 131.828125 192.105469 " fill-opacity="1" fill-rule="evenodd"/><path fill="#ffff" d="M 144.707031 186.832031 C 144.707031 194.378906 144.75 201.921875 144.683594 209.46875 C 144.664062 211.988281 144.503906 214.800781 141.195312 214.738281 C 137.945312 214.683594 137.769531 211.90625 137.757812 209.355469 C 137.707031 193.855469 137.691406 178.347656 137.707031 162.851562 C 137.707031 160.257812 137.992188 157.6875 141.339844 157.710938 C 144.785156 157.734375 144.722656 160.476562 144.742188 162.957031 C 144.792969 170.917969 144.761719 178.878906 144.761719 186.835938 C 144.742188 186.832031 144.722656 186.832031 144.707031 186.832031 Z M 144.707031 186.832031 " fill-opacity="1" fill-rule="evenodd"/><path fill="#ffff" d="M 211.292969 191.472656 C 211.289062 197.722656 211.355469 203.96875 211.25 210.207031 C 211.203125 212.820312 210.605469 215.292969 207.277344 214.855469 C 204.828125 214.535156 204.175781 212.574219 204.160156 210.417969 C 204.125 196.675781 204.15625 182.933594 204.175781 169.203125 C 204.179688 166.734375 205.351562 165.53125 207.699219 165.40625 C 211.128906 165.226562 211.304688 167.628906 211.300781 170.253906 C 211.300781 177.332031 211.304688 184.398438 211.292969 191.472656 Z M 211.292969 191.472656 " fill-opacity="1" fill-rule="evenodd"/><path fill="#ffff" d="M 278.300781 199.886719 C 275.625 204.597656 281.683594 214.125 274.179688 214.25 C 267.101562 214.363281 270.394531 204.898438 270.730469 200.097656 C 271.089844 194.886719 266.152344 184.984375 274.589844 185.058594 C 281.394531 185.109375 275.96875 194.828125 278.300781 199.886719 Z M 278.300781 199.886719 " fill-opacity="1" fill-rule="evenodd"/><path fill="#ffff" d="M 118.996094 198.175781 C 115.542969 203.351562 123.398438 214.117188 114.136719 214.117188 C 107.65625 214.117188 111.398438 203.695312 111.414062 198.222656 C 111.4375 192.421875 107.675781 181.519531 114.710938 181.601562 C 122.5625 181.691406 115.613281 192.671875 118.996094 198.175781 Z M 118.996094 198.175781 " fill-opacity="1" fill-rule="evenodd"/><path fill="#ffff" d="M 105.199219 197.847656 C 102.34375 203.3125 109.046875 213.867188 100.773438 214.113281 C 94.351562 214.296875 97.765625 203.828125 97.804688 198.375 C 97.847656 192.523438 93.929688 181.640625 100.878906 181.578125 C 108.917969 181.503906 102.421875 192.367188 105.199219 197.847656 Z M 105.199219 197.847656 " fill-opacity="1" fill-rule="evenodd"/><path fill="#ffff" d="M 265.402344 203.289062 C 263.679688 207.765625 267.53125 215.191406 260.605469 214.546875 C 253.519531 213.890625 257.390625 206.453125 257.128906 202.179688 C 256.902344 198.394531 254.324219 191.039062 261.226562 191.644531 C 268.730469 192.300781 262.339844 200.21875 265.402344 203.289062 Z M 265.402344 203.289062 " fill-opacity="1" fill-rule="evenodd"/><g clip-path="url(#d48b424ddb)"><path fill="#ffff" d="M 163.984375 152.679688 C 163.984375 135.113281 163.9375 117.550781 164.023438 99.984375 C 164.046875 96.929688 162.863281 92.59375 167.835938 92.585938 C 172.960938 92.570312 171.527344 97.089844 171.53125 100.015625 C 171.640625 135.566406 171.660156 171.109375 171.5625 206.679688 C 171.550781 210.066406 172.730469 215.335938 167.089844 214.769531 C 162.5 214.3125 164.078125 209.644531 164.050781 206.644531 C 163.917969 188.644531 163.984375 170.65625 163.984375 152.679688 Z M 163.984375 152.679688 " fill-opacity="1" fill-rule="evenodd"/></g><path fill="#ffff" d="M 150.800781 171.644531 C 150.800781 159.96875 150.757812 148.289062 150.832031 136.609375 C 150.847656 133.796875 150.417969 130.378906 154.65625 130.453125 C 158.792969 130.539062 158.410156 133.867188 158.417969 136.710938 C 158.460938 160.898438 158.472656 185.09375 158.449219 209.300781 C 158.445312 211.800781 158.390625 214.578125 155.191406 214.914062 C 151.222656 215.328125 150.785156 212.226562 150.765625 209.191406 C 150.699219 196.675781 150.738281 184.152344 150.738281 171.640625 C 150.757812 171.644531 150.78125 171.644531 150.800781 171.644531 Z M 150.800781 171.644531 " fill-opacity="1" fill-rule="evenodd"/><path fill="#ffff" d="M 177.679688 162.78125 C 177.679688 148.53125 177.570312 134.28125 177.757812 120.03125 C 177.800781 116.769531 175.789062 111.398438 181.605469 111.539062 C 186.503906 111.664062 184.785156 116.488281 184.796875 119.410156 C 184.914062 148.332031 184.9375 177.25 184.765625 206.1875 C 184.746094 209.378906 186.742188 215.089844 180.960938 214.671875 C 175.628906 214.289062 177.84375 208.804688 177.785156 205.550781 C 177.539062 191.289062 177.679688 177.035156 177.679688 162.78125 Z M 177.679688 162.78125 " fill-opacity="1" fill-rule="evenodd"/><g fill="#ffff" fill-opacity="1"><g transform="translate(134.848021, 258.746659)"><g><path d="M 12.65625 0 L 12.65625 -20.691406 L 20.019531 -20.691406 L 20.019531 -24.726562 L 0.78125 -24.726562 L 0.78125 -20.691406 L 8.144531 -20.691406 L 8.144531 0 Z M 12.65625 0 "/></g></g></g><g fill="#ffff" fill-opacity="1"><g transform="translate(155.644727, 258.746659)"><g><path d="M 10.980469 0.5625 C 15.929688 0.5625 19.746094 -2.054688 19.746094 -8.710938 L 19.746094 -18.691406 L 15.363281 -18.691406 L 15.363281 -8.835938 C 15.363281 -5.417969 13.910156 -3.527344 10.964844 -3.527344 C 8.035156 -3.527344 6.546875 -5.382812 6.546875 -8.835938 L 6.546875 -18.691406 L 2.183594 -18.691406 L 2.183594 -8.710938 C 2.183594 -2.054688 5.980469 0.5625 10.980469 0.5625 Z M 10.980469 0.5625 "/></g></g></g><g fill="#ffff" fill-opacity="1"><g transform="translate(177.568527, 258.746659)"><g><path d="M 6.980469 0 L 6.980469 -9.546875 C 6.980469 -13.199219 9.347656 -15.199219 11.925781 -15.199219 C 14.582031 -15.199219 16.253906 -13.691406 16.253906 -9.980469 L 16.253906 0 L 20.65625 0 L 20.65625 -10.074219 C 20.65625 -15.945312 18.164062 -19.253906 13.144531 -19.253906 C 10.273438 -19.253906 7.835938 -17.820312 6.765625 -15.78125 L 6.765625 -18.691406 L 2.582031 -18.691406 L 2.582031 0 Z M 6.980469 0 "/></g></g></g><g fill="#ffff" fill-opacity="1"><g transform="translate(200.655779, 258.746659)"><g><path d="M 20.363281 -9.671875 C 20.363281 -14.820312 16.582031 -19.253906 10.945312 -19.253906 C 5.328125 -19.253906 1.253906 -14.800781 1.253906 -9.347656 C 1.253906 -3.890625 5.328125 0.5625 10.945312 0.5625 C 15.601562 0.5625 18.929688 -2.507812 19.875 -5.871094 L 15.074219 -5.871094 C 14.4375 -4.292969 13.074219 -3.363281 10.855469 -3.363281 C 8.273438 -3.363281 6.128906 -5.128906 5.671875 -8.183594 L 20.273438 -8.183594 C 20.347656 -8.871094 20.363281 -9.199219 20.363281 -9.671875 Z M 5.855469 -11.582031 C 6.601562 -14.21875 8.710938 -15.417969 10.925781 -15.417969 C 13.507812 -15.417969 15.691406 -13.671875 15.875 -11.582031 Z M 5.855469 -11.582031 "/></g></g></g><g fill="#ffff" fill-opacity="1"><g transform="translate(222.016038, 258.746659)"><g><path d="M 17.253906 0 L 17.253906 -3.710938 L 7.199219 -3.710938 L 16.820312 -15.929688 L 16.820312 -18.691406 L 1.636719 -18.691406 L 1.636719 -14.980469 L 10.835938 -14.980469 L 1.144531 -2.726562 L 1.144531 0 Z M 17.253906 0 "/></g></g></g><g fill="#ffff" fill-opacity="1"><g transform="translate(82.150565, 279.17799)"><g><path d="M 6.71875 0 L 5.109375 -2.65625 C 5.023438 -2.644531 4.894531 -2.640625 4.71875 -2.640625 L 2.625 -2.640625 L 2.625 0 L 1.15625 0 L 1.15625 -8.765625 L 4.71875 -8.765625 C 5.832031 -8.765625 6.695312 -8.503906 7.3125 -7.984375 C 7.9375 -7.460938 8.25 -6.726562 8.25 -5.78125 C 8.25 -5.070312 8.09375 -4.472656 7.78125 -3.984375 C 7.46875 -3.503906 7.015625 -3.15625 6.421875 -2.9375 L 8.390625 0 Z M 2.625 -3.96875 L 4.71875 -3.96875 C 6.132812 -3.96875 6.84375 -4.554688 6.84375 -5.734375 C 6.84375 -6.867188 6.132812 -7.4375 4.71875 -7.4375 L 2.625 -7.4375 Z M 2.625 -3.96875 "/></g></g></g><g fill="#ffff" fill-opacity="1"><g transform="translate(100.586348, 279.17799)"><g><path d="M 2.625 0 L 1.15625 0 L 1.15625 -8.765625 L 2.625 -8.765625 Z M 2.625 0 "/></g></g></g><g fill="#ffff" fill-opacity="1"><g transform="translate(113.748121, 279.17799)"><g><path d="M 4.03125 -8.828125 C 5.164062 -8.828125 6.191406 -8.53125 7.109375 -7.9375 L 6.484375 -6.625 C 5.597656 -7.164062 4.742188 -7.4375 3.921875 -7.4375 C 3.484375 -7.4375 3.132812 -7.359375 2.875 -7.203125 C 2.625 -7.046875 2.5 -6.820312 2.5 -6.53125 C 2.5 -6.238281 2.613281 -5.988281 2.84375 -5.78125 C 3.082031 -5.570312 3.375 -5.421875 3.71875 -5.328125 C 4.070312 -5.234375 4.453125 -5.113281 4.859375 -4.96875 C 5.265625 -4.820312 5.644531 -4.664062 6 -4.5 C 6.351562 -4.34375 6.644531 -4.085938 6.875 -3.734375 C 7.101562 -3.390625 7.21875 -2.972656 7.21875 -2.484375 C 7.21875 -1.710938 6.910156 -1.097656 6.296875 -0.640625 C 5.679688 -0.179688 4.882812 0.046875 3.90625 0.046875 C 3.238281 0.046875 2.59375 -0.078125 1.96875 -0.328125 C 1.34375 -0.578125 0.796875 -0.914062 0.328125 -1.34375 L 0.96875 -2.625 C 1.40625 -2.207031 1.890625 -1.890625 2.421875 -1.671875 C 2.953125 -1.453125 3.457031 -1.34375 3.9375 -1.34375 C 4.457031 -1.34375 4.859375 -1.4375 5.140625 -1.625 C 5.429688 -1.8125 5.578125 -2.070312 5.578125 -2.40625 C 5.578125 -2.707031 5.457031 -2.957031 5.21875 -3.15625 C 4.988281 -3.363281 4.695312 -3.515625 4.34375 -3.609375 C 4 -3.710938 3.617188 -3.832031 3.203125 -3.96875 C 2.796875 -4.101562 2.414062 -4.25 2.0625 -4.40625 C 1.71875 -4.5625 1.425781 -4.8125 1.1875 -5.15625 C 0.957031 -5.5 0.84375 -5.910156 0.84375 -6.390625 C 0.84375 -7.128906 1.132812 -7.71875 1.71875 -8.15625 C 2.300781 -8.601562 3.070312 -8.828125 4.03125 -8.828125 Z M 4.03125 -8.828125 "/></g></g></g><g fill="#ffff" fill-opacity="1"><g transform="translate(130.918644, 279.17799)"><g><path d="M 8.765625 0 L 7.28125 0 L 7.28125 -3.640625 L 2.625 -3.640625 L 2.625 0 L 1.15625 0 L 1.15625 -8.765625 L 2.625 -8.765625 L 2.625 -4.96875 L 7.28125 -4.96875 L 7.28125 -8.765625 L 8.765625 -8.765625 Z M 8.765625 0 "/></g></g></g><g fill="#ffff" fill-opacity="1"><g transform="translate(150.206292, 279.17799)"><g><path d="M 6.8125 -1.984375 L 2.390625 -1.984375 L 1.546875 0 L 0.015625 0 L 3.890625 -8.765625 L 5.40625 -8.765625 L 9.234375 0 L 7.65625 0 Z M 6.25 -3.296875 L 4.59375 -7.1875 L 2.9375 -3.296875 Z M 6.25 -3.296875 "/></g></g></g><g fill="#ffff" fill-opacity="1"><g transform="translate(168.829988, 279.17799)"><g><path d="M 1.15625 -8.765625 L 4.96875 -8.765625 C 5.875 -8.765625 6.585938 -8.570312 7.109375 -8.1875 C 7.640625 -7.800781 7.90625 -7.265625 7.90625 -6.578125 C 7.90625 -6.085938 7.765625 -5.664062 7.484375 -5.3125 C 7.210938 -4.96875 6.835938 -4.738281 6.359375 -4.625 C 6.953125 -4.519531 7.414062 -4.269531 7.75 -3.875 C 8.082031 -3.488281 8.25 -3 8.25 -2.40625 C 8.25 -1.65625 7.960938 -1.066406 7.390625 -0.640625 C 6.828125 -0.210938 6.046875 0 5.046875 0 L 1.15625 0 Z M 2.625 -7.453125 L 2.625 -5.140625 L 4.890625 -5.140625 C 5.359375 -5.140625 5.722656 -5.242188 5.984375 -5.453125 C 6.253906 -5.660156 6.390625 -5.945312 6.390625 -6.3125 C 6.390625 -6.675781 6.253906 -6.957031 5.984375 -7.15625 C 5.722656 -7.351562 5.359375 -7.453125 4.890625 -7.453125 Z M 2.625 -3.828125 L 2.625 -1.3125 L 4.890625 -1.3125 C 5.472656 -1.3125 5.925781 -1.421875 6.25 -1.640625 C 6.570312 -1.867188 6.734375 -2.1875 6.734375 -2.59375 C 6.734375 -2.976562 6.566406 -3.28125 6.234375 -3.5 C 5.910156 -3.71875 5.460938 -3.828125 4.890625 -3.828125 Z M 2.625 -3.828125 "/></g></g></g><g fill="#ffff" fill-opacity="1"><g transform="translate(187.052803, 279.17799)"><g><path d="M 8.765625 0 L 7.28125 0 L 7.28125 -3.640625 L 2.625 -3.640625 L 2.625 0 L 1.15625 0 L 1.15625 -8.765625 L 2.625 -8.765625 L 2.625 -4.96875 L 7.28125 -4.96875 L 7.28125 -8.765625 L 8.765625 -8.765625 Z M 8.765625 0 "/></g></g></g><g fill="#ffff" fill-opacity="1"><g transform="translate(206.340446, 279.17799)"><g><path d="M 10.171875 0 L 8.65625 0 L 6.578125 -6.84375 L 4.46875 0 L 2.9375 0 L 0.03125 -8.765625 L 1.625 -8.765625 L 3.765625 -1.640625 L 5.875 -8.765625 L 7.328125 -8.765625 L 9.46875 -1.640625 L 11.578125 -8.765625 L 13.109375 -8.765625 Z M 10.171875 0 "/></g></g></g><g fill="#ffff" fill-opacity="1"><g transform="translate(228.69729, 279.17799)"><g><path d="M 1.765625 -7.53125 C 2.660156 -8.382812 3.765625 -8.8125 5.078125 -8.8125 C 6.390625 -8.8125 7.488281 -8.382812 8.375 -7.53125 C 9.269531 -6.6875 9.71875 -5.632812 9.71875 -4.375 C 9.71875 -3.125 9.269531 -2.070312 8.375 -1.21875 C 7.488281 -0.363281 6.390625 0.0625 5.078125 0.0625 C 3.765625 0.0625 2.660156 -0.363281 1.765625 -1.21875 C 0.867188 -2.070312 0.421875 -3.125 0.421875 -4.375 C 0.421875 -5.632812 0.867188 -6.6875 1.765625 -7.53125 Z M 5.09375 -7.484375 C 4.21875 -7.484375 3.472656 -7.179688 2.859375 -6.578125 C 2.242188 -5.984375 1.9375 -5.25 1.9375 -4.375 C 1.9375 -3.507812 2.242188 -2.773438 2.859375 -2.171875 C 3.484375 -1.566406 4.222656 -1.265625 5.078125 -1.265625 C 5.941406 -1.265625 6.675781 -1.566406 7.28125 -2.171875 C 7.894531 -2.773438 8.203125 -3.507812 8.203125 -4.375 C 8.203125 -5.25 7.894531 -5.984375 7.28125 -6.578125 C 6.675781 -7.179688 5.945312 -7.484375 5.09375 -7.484375 Z M 5.09375 -7.484375 "/></g></g></g><g fill="#ffff" fill-opacity="1"><g transform="translate(248.222958, 279.17799)"><g><path d="M 6.71875 0 L 5.109375 -2.65625 C 5.023438 -2.644531 4.894531 -2.640625 4.71875 -2.640625 L 2.625 -2.640625 L 2.625 0 L 1.15625 0 L 1.15625 -8.765625 L 4.71875 -8.765625 C 5.832031 -8.765625 6.695312 -8.503906 7.3125 -7.984375 C 7.9375 -7.460938 8.25 -6.726562 8.25 -5.78125 C 8.25 -5.070312 8.09375 -4.472656 7.78125 -3.984375 C 7.46875 -3.503906 7.015625 -3.15625 6.421875 -2.9375 L 8.390625 0 Z M 2.625 -3.96875 L 4.71875 -3.96875 C 6.132812 -3.96875 6.84375 -4.554688 6.84375 -5.734375 C 6.84375 -6.867188 6.132812 -7.4375 4.71875 -7.4375 L 2.625 -7.4375 Z M 2.625 -3.96875 "/></g></g></g><g fill="#ffff" fill-opacity="1"><g transform="translate(266.658736, 279.17799)"><g><path d="M 7 0 L 4.125 -3.875 L 2.625 -2.234375 L 2.625 0 L 1.15625 0 L 1.15625 -8.765625 L 2.625 -8.765625 L 2.625 -4.234375 L 6.8125 -8.765625 L 8.5625 -8.765625 L 5.15625 -5.03125 L 8.78125 0 Z M 7 0 "/></g></g></g><g fill="#ffff" fill-opacity="1"><g transform="translate(285.031892, 279.17799)"><g><path d="M 4.03125 -8.828125 C 5.164062 -8.828125 6.191406 -8.53125 7.109375 -7.9375 L 6.484375 -6.625 C 5.597656 -7.164062 4.742188 -7.4375 3.921875 -7.4375 C 3.484375 -7.4375 3.132812 -7.359375 2.875 -7.203125 C 2.625 -7.046875 2.5 -6.820312 2.5 -6.53125 C 2.5 -6.238281 2.613281 -5.988281 2.84375 -5.78125 C 3.082031 -5.570312 3.375 -5.421875 3.71875 -5.328125 C 4.070312 -5.234375 4.453125 -5.113281 4.859375 -4.96875 C 5.265625 -4.820312 5.644531 -4.664062 6 -4.5 C 6.351562 -4.34375 6.644531 -4.085938 6.875 -3.734375 C 7.101562 -3.390625 7.21875 -2.972656 7.21875 -2.484375 C 7.21875 -1.710938 6.910156 -1.097656 6.296875 -0.640625 C 5.679688 -0.179688 4.882812 0.046875 3.90625 0.046875 C 3.238281 0.046875 2.59375 -0.078125 1.96875 -0.328125 C 1.34375 -0.578125 0.796875 -0.914062 0.328125 -1.34375 L 0.96875 -2.625 C 1.40625 -2.207031 1.890625 -1.890625 2.421875 -1.671875 C 2.953125 -1.453125 3.457031 -1.34375 3.9375 -1.34375 C 4.457031 -1.34375 4.859375 -1.4375 5.140625 -1.625 C 5.429688 -1.8125 5.578125 -2.070312 5.578125 -2.40625 C 5.578125 -2.707031 5.457031 -2.957031 5.21875 -3.15625 C 4.988281 -3.363281 4.695312 -3.515625 4.34375 -3.609375 C 4 -3.710938 3.617188 -3.832031 3.203125 -3.96875 C 2.796875 -4.101562 2.414062 -4.25 2.0625 -4.40625 C 1.71875 -4.5625 1.425781 -4.8125 1.1875 -5.15625 C 0.957031 -5.5 0.84375 -5.910156 0.84375 -6.390625 C 0.84375 -7.128906 1.132812 -7.71875 1.71875 -8.15625 C 2.300781 -8.601562 3.070312 -8.828125 4.03125 -8.828125 Z M 4.03125 -8.828125 "/></g></g></g></svg>